<?xml version="1.0" standalone="no"?>
<!DOCTYPE svg PUBLIC "-//W3C//DTD SVG 20010904//EN"
 "http://www.w3.org/TR/2001/REC-SVG-20010904/DTD/svg10.dtd">
<svg version="1.0" xmlns="http://www.w3.org/2000/svg"
 width="700.000000pt" height="700.000000pt" viewBox="0 0 700.000000 700.000000"
 preserveAspectRatio="xMidYMid meet">
<metadata>
Created by potrace 1.11, written by Peter Selinger 2001-2013
</metadata>
<g transform="translate(0.000000,700.000000) scale(0.100000,-0.100000)"
fill="#000000" stroke="none">
<path d="M2338 6996 c-1 -2 -39 -6 -83 -10 -44 -4 -89 -9 -100 -11 -11 -3 -33
-6 -50 -9 -93 -13 -311 -67 -375 -93 -8 -3 -19 -7 -25 -9 -34 -8 -164 -62
-245 -101 -452 -216 -847 -582 -1103 -1023 -136 -233 -275 -609 -311 -840 -3
-19 -8 -44 -10 -55 -36 -176 -42 -601 -11 -805 18 -120 29 -177 51 -270 168
-701 639 -1322 1259 -1662 246 -135 546 -236 815 -274 19 -3 49 -7 65 -10 57
-10 470 -12 540 -3 153 19 217 31 315 55 440 107 835 330 1160 654 69 69 156
163 194 210 198 248 365 562 460 865 28 89 72 268 81 330 4 22 10 67 15 100
29 195 32 547 6 705 -3 14 -10 59 -16 100 -25 167 -95 413 -170 595 -44 105
-179 366 -200 385 -3 3 -27 39 -55 80 -184 279 -464 548 -765 736 -146 92
-421 218 -545 251 -11 3 -56 16 -100 28 -83 24 -196 47 -325 66 -67 10 -463
22 -472 15z"/>
<path d="M5059 2496 c-2 -3 -23 -7 -47 -11 -114 -17 -273 -86 -377 -165 -316
-238 -449 -662 -324 -1033 87 -257 267 -460 503 -567 453 -206 982 -15 1194
431 68 143 93 252 93 409 -1 99 -3 132 -17 190 -3 14 -8 36 -11 50 -7 39 -61
170 -95 230 -92 163 -234 294 -408 378 -130 63 -222 84 -376 88 -72 2 -133 2
-135 0z"/>
<path d="M6540 772 c-248 -35 -408 -273 -334 -495 87 -264 422 -361 643 -187
186 147 199 409 28 571 -87 83 -222 128 -337 111z"/>
</g>
</svg>
