<?xml version="1.0" encoding="UTF-8" standalone="no"?>
<!DOCTYPE svg PUBLIC "-//W3C//DTD SVG 1.1//EN" "http://www.w3.org/Graphics/SVG/1.1/DTD/svg11.dtd">
<svg version="1.1" xmlns="http://www.w3.org/2000/svg" xmlns:xlink="http://www.w3.org/1999/xlink" preserveAspectRatio="xMidYMid meet" viewBox="0 0 640 640" width="300" height="300"><defs><path d="M565.58 604.5C565.58 624.09 582.26 640 602.79 640C623.33 640 640 624.09 640 604.5C640 584.91 623.33 569.01 602.79 569.01C582.26 569.01 565.58 584.91 565.58 604.5Z" id="a1c4KFxETi"></path><path d="M554.01 471.18C568.29 516.12 544.02 564 499.84 578.04C455.66 592.08 408.19 567.01 393.91 522.07C379.63 477.14 403.9 429.26 448.09 415.22C492.27 401.17 539.73 426.25 554.01 471.18Z" id="c7TEs0oH7l"></path><path d="M457.7 237.36C457.7 368.36 355.15 474.72 228.85 474.72C102.54 474.72 0 368.36 0 237.36C0 106.36 102.54 0 228.85 0C355.15 0 457.7 106.36 457.7 237.36Z" id="crlVORuDd"></path></defs><g><g><g><use xlink:href="#a1c4KFxETi" opacity="1" fill="#ebeee9" fill-opacity="1"></use></g><g><use xlink:href="#c7TEs0oH7l" opacity="1" fill="#a63446" fill-opacity="1"></use></g><g><g></g><use xlink:href="#crlVORuDd" opacity="1" fill="#ebeee9" fill-opacity="1"></use></g></g></g></svg>